<?xml version="1.0" encoding="iso-8859-1"?>
<!-- Generator: Adobe Illustrator 25.1.0, SVG Export Plug-In . SVG Version: 6.00 Build 0)  -->
<svg version="1.1" id="Layer_1" xmlns="http://www.w3.org/2000/svg" xmlns:xlink="http://www.w3.org/1999/xlink" x="0px" y="0px"
	 width="636.071px" height="720px" viewBox="0 0 636.071 720" enable-background="new 0 0 636.071 720" xml:space="preserve">
<path d="M625.26,393.187c-9.633-8.752-22.273-15.994-22.928-30.594c-0.158-2.642-2.506-5.538-4.586-7.559
	c-3.932-3.382-12.66-3.046-11.663-10.289c0.817-16.307,6.182-31.846,15.985-44.948c8.765-10.056-0.05-20.448-3.768-30.632
	c-4.984-13.193-5.475-27.127-6.445-40.966c0.63-5.403,4.513-7.957,0.358-13.512c-8.839-16.359-23.984-36.722-44.807-34.523
	c8.563,13.192,14.269,30.101-0.535,42.235c-22.264,19.564-19.195,42.972,2.05,61.75c1.174,1.46,2.72,3.73,0.166,5.046
	c-1.987,1.024-4.768,2.816-6.635-0.564c-5.46-11.62-18.507-11.53-27.598-18.015c-4.471-6.354-30.036-28.844-27.067-34.469
	c16.19-28.256,32.592-63.996,19.515-96.274c-5.874-15.761-26.28-22.275-30.062-1.527c-0.48,3.313,0.599,5.842,3.707,7.851
	c16.047,8.632,20.536,36.087,9.103,48.192c-8.8-20.342-25.214-35.678-45.92-43.601c-4.045-1.709-7.217-3.978-9.352-8.084
	c-5.707-13.421-20.956-21.351-18.88-37.87c0.746-4.243-2.729-9.434-4.893-13.896c-2.533-5.075-10.299,2.042-5.275,5.232
	c2.996,2.627,1.338,4.183-1.048,5.838c-43.295-48.384-102.54-23.308-143.171-83.711c11.896-0.85,23.071,6.302,27.194,16.092
	c14.244,18.74,26.819-14.654,5.018-24.801c-21.285-15.092-76.373,4.115-54.941,15.784c11.727,2.949,17.244,12.237,23.392,21.574
	c-13.72,5.58-25.43-18.979-48.304-22.202c-46.267-8.877-100.923,13.993-109.586,64.531c-0.777,3.999-2.415,5.617-6.209,6.631
	c-15.046,2.904-18.901,17.337-25.793,28.913c-20.308,30.221-29.951,10.226-46.704,47.904c-6.137-24.881-1.446-47.036,11.284-68.929
	c1.253,7.22-0.722,13.486,3.479,18.759c10.156-3.534,23.485-63.229,2.127-38.864c-23.218,28.678-30.989,61.928-29.536,98.118
	c8.201,36.41-17.095,78.725,7.891,111.484c1.78,2.374,1.988,4.828,0.087,7.006c-12.69,12.562-25.384,25.398-3.248,37.011
	c-4.395,6.789-15.83,12.708-15.154,21.256c1.504,6.814,4.473,12.786,10.25,17.103c5.663,3.949,11.85-3.732,18.033-3.132
	c14.683-0.562,27.37-11.482,26.997-27.122c-3.535,5.489-16.102,17.253-19.171,6.968c5.802-14.42,20.726-29.533,37.027-20.081
	c-10.387,23.383,21.885,17.022,3.228,36.41c21.048-2.203,14.556-21.886,25.786-33.086c8.599-8.818-4.768-17.544-10.528-23.586
	c-17.341-14.555-4.688-38.162-33.921-41.311c-0.21-0.464-0.421-0.928-0.631-1.393c13.943-16.074,38.171-7.901,40.625-29.415
	c0.451-3.868,2.492-4.735,5.736-4.466c12.804-1.345,6.127,25.17,14.149,17.374c16.313-31.484-2.68-18.813-17.828-26.926
	c0-4.547,0-8.456,0-12.773c15.081-1.719,29.766-5.442,41.937-16.298c4.661,10.612,9.63,20.02,8.502,31.97
	c2.592,18.283,9.213,35.239,17.271,51.679c3.9,8.971-8.438,23.535-9.862,33.828c-2.34,7.903-9.321,11.136-13.866,17.358
	c-1.781-3.139-3.253-5.583-6.516-3.412c0.738,5.773-1.346,9.302-6.142,12.331c-7.361-5.792-4.972-16.045,2.698-20.362
	c10.809-5.159-3.015-21.074-9.893-11.457c-17.48,19.757,1.153,32.08-6.439,38.857c-6.985,8.858-9.026,21.516-12.111,32.188
	c-1.214,16.959-21.354,21.292-17.325,39.012c12.614,70.726,17.597,46.827-10.884,112.781c-5.169,15.056-21.091,48.091,1.111,55.127
	c19.468,8.509,39.852,9.809,60.813,9.339c-0.873,1.917-1.41,3.096-1.581,3.47c-2.345-0.194-3.966-0.327-5.587-0.461
	c-0.665,4.636-0.209,6.802,1.82,11.748c-3.506-2.296-4.446-3.09-6.513-5.956c-5.511,5.197-5.511,5.197-2.423,12.397
	c-30.218,21.63-56.498,53.391-59.299,91.775c2.919,19.548,29.847-20.589,30.667-27.498c1.422-11.506-13.108,2.061-17.55,4.162
	c7.231-22.616,21.856-40.151,43.547-50.261c7.02-3.263,10.436-2.238,14.21,4.589c14.233,25.549,27.71,50.866,42.989,75.936
	c5.548-3.441,7.222-6.683,7.095-12.938c13.408,5.258,5.625-0.924,12.872-7.962c0.61,1.56,0.935,2.389,1.259,3.217
	c6.066-2.344,6.921-3.716,6.794-8.861c-0.224-27.436-2.141-55.063-1.326-82.41c0.4,0.03,1.2,9.098,1.2,14.353
	c3.804-3.496,6.886-6.33,10.064-9.251c8.4,17.358-10.655,7.818,5.183,35.897c1.941-0.904,3.539-2.514,5.676-2.849
	c4.359,12.104,10.513,23.056,12.139,36.091c1.657-0.826,6.668-2.424,6.864-2.072c-2.137,1.494-4.274,2.989-7.248,5.07
	c7.357,2.244,4.695,9.539,7.717,14.305c11.529-12.532,21.804-26.073,33.05-38.874c4.013-4.294,18.72-16.281,7.486-19.96
	c0-3.001,0-6.457,0-10.944c-10.229,9.33-20.184,16.28-30.91,24.722c-1.965-5.888-3.9-12.086-5.391-18.133
	c-3.475-14.875-5.173-9.921,7.068-19.928c5.02-4.104,10.733-7.353,16.066-11.084c5.228-3.373,0.058-4.567,1.053-8.166
	c4.28-3.664-0.062-9.505,1.172-13.308c-0.326-0.216-11.01,3.935-13.071,4.836c-6.405,2.798-12.241,7.539-19.875,12.751
	c-3.307-9.341-3.37-9.681,4.005-14.775c8.265-5.709,16.75-11.099,25.167-16.587c5.162-4.001,6-12.632-2.815-12.629
	c0.449-2.231,5.48-3.559,2.931-7.305c-1.671,0.863-3.139,1.621-5.476,2.828c9.418-8.773,0.821-10.52,10.093-14.796
	c10.988-5.855-20.662-13.09-20.466-22.965c-3.928-11.508-4.188-23.263-3.367-35.217c-0.091-12.968,33.818,4.279,39.671,7.394
	c12.514,8.055,25.586-1.327,37.519-5.865c12.412-5.701,23.928-13.624,38.142-14.698c5.053-0.977,11.372-2.829,11.938-8.925
	c1.245-9.411,1.652-19.105-2.475-27.613c-8.38-13.544-17.39-39.6-33.766-43.241c-19.563-5.264-39.196-10.275-58.832-15.262
	c-0.031-0.552-0.062-1.104-0.094-1.656c43.865-3.712,85.179-15.003,116.25-48.27c9.622,9.746,19.612,16.152,32.233,20.736
	c-20.06,34.97,16.265,38.179,19.856,53.343c3.686,10.529,20.539,10.516,6.082,23.602c-5.709-8.89-14.576-12.066-23.794-14.808
	c-17.286-9.18-18.275-34.607-11.616-51.632c-24.591,16.079-40.781,77.2-9.107,91.739c12.282,5.634,17.471,15.294,19.003,27.944
	c0.248,2.05,1.306,4.823,2.881,5.756c10.048,6.244,30.407,10.932,36.146-2.919c1.513-6.175,4.388-11.763,9.169-16.528
	c5.22,8.02,12.328,10.75,21.525,10.644c4.949,0.563,23.393,1.179,21.673,7.005c-9.958,33.738,6.193,64.096,5.774,64.239
	c-32.875-14.215-25.618-54.224-27.639-54.847c-1.74,5.511-4.894,10.44-9.72,13.732c-10.725-4.888-7.253,9.811-7.762,10.007
	c-1.53-2.95-3.06-5.899-4.694-9.047c-5.182,0.083-5.552,0.272-5.055,5.635c0.49,5.296,1.44,10.55,2.325,16.785
	c-6.355-9.496-8.065-20.751-21.429-15.499c-2.17,6.311-12.199,20.248-17.38,8.673c4.457-0.143,7.943-3.925,9.757-7.353
	c1.356-4.75-7.947-9.766-7.712-10.216c4.805,1.757,8.264,2.908,13.737,3.366c-8.223-15.562-27.125-9.557-39.421-3.701
	c-30.383,17.053-43.081,54.887-42.157,88.203c-0.424,0.067-0.848,0.134-1.271,0.201c-6.285-20.725-12.57-41.45-18.884-62.267
	c-1.046,0.474-2.031,0.921-3.439,1.56c-2.169-14.549-12.759-8.051-6.706,5.898c-0.479,0.171-0.958,0.342-1.438,0.513
	c-1.611-2.963-3.222-5.926-4.864-8.946c-8.73,1.947-5.272,5.023-7.353,12.026c-6.094,5.961,2.328,15.575,3.651,22.391
	c4.123,10.442,8.323,20.853,12.492,31.276c-14.722-12.226-25.555-28.041-37.423-42.86c-3.575-6.867-13.742-3.494-13.366,4.143
	c-0.035,2.129-0.372,4.253-0.573,6.379c-0.324,0.043-0.648,0.086-0.972,0.128c-1.436-2.481-2.872-4.962-4.579-7.91
	c-4.147,9.276-14.686,7.959-11.952,15.237c11.722,35.692,24.988,71.13,39.245,105.85c2.298-0.839,4.198-1.533,6.103-2.228
	c2.258-5.444,4.628-10.667,3.323-16.98c0.527-0.103,4.035,7.295,5.259,11.091c9.387-0.656,1.424-9.625,0.917-14.752
	c-2.747-10.927-5.977-21.814-8.266-32.833c17.154,9.611,34.095,19.102,50.358,28.214c1.779-3.702,1.691-15.697,4.053-19.568
	c5.375,4.645,5.375,4.645,9.052,0.547c53.486,45.954,98.738-26.884,96.008-77.972c7.586,22.262,15.063,44.202,22.703,66.623
	c11.941-6.276,11.777-6.177,8.32-18.442c4.653,4.249,5.588,4.399,11.408,1.441c-2.06-9.772-4.132-19.599-6.392-30.321
	c8.536,7.138,16.27,13.522,23.893,20.034c7.163,5.141,7.183-6.496,6.198-10.878c0.551-0.091,1.103-0.183,1.654-0.274
	c1.022,2.09,3.985,6.049,4.445,5.939c-2.314-18.457-3.131-36.939-2.579-55.53c11.093,13.638,21.281,27.008,31.256,40.535
	c5.096,7.541,8.881,6.89,14.473,0.384c-4.985-6.469-5.354-8.832-2.571-11.678c2.601,0.587,6.324,1.931,6.608,1.408
	c2.39-4.672,4.547-9.872,0.496-14.408c-8.524-15.476-16.984-30.989-25.675-46.371c-2.326-4.116-2.614-9.681-7.741-11.753
	c6.388-9.415,13.687-21.318,4.21-31.763c-5.718-3.061-16.395-37.525-2.701-28.996c17.495,7.056,18.82,28.55,31.693,25.125
	C628.13,442.175,644.021,408.474,625.26,393.187z M293.634,12.908c11.446,4.485,10.148,32.916-2.826,14.36
	c10.629-2.237,3.103-9.879-2.259-11.877c-8.492-2.082-15.851-4.353-24.822-4.811C272.778,7.456,286.643,8.763,293.634,12.908z
	 M91.921,682.332c6.636-0.879-1.734,8.203-2.668,10.575c-0.391-3.108,0.225-5.916-4.291-6.435
	C87.271,685.073,89.539,683.595,91.921,682.332z M125.435,623.868c3.898-4.355,7.9-8.504,14.636-7.35
	C135.192,618.969,130.314,621.418,125.435,623.868z M442.766,605.316c-21.106,15.487-40.877-7.937-38.737-29.887
	c0.342-12.978,5.337-24.305,13.391-34.089C459.36,502.646,479.262,579.647,442.766,605.316z M546.675,247.289
	c-0.629,6.005-0.113,12.129-0.113,18.842c-23.112-25.674,25.912-49.464,13.412-77.522c13.795,6.513,20.083,20.789,24.746,34.353
	c-2.13,13.215-0.457,25.758,3.261,38.438c1.337,9.426,6.751,19.081,6.198,28.431c-11.024,16.616-8.114,36.487-12.748,55.206
	c-14.984-43.197,11.109-54.093,1.993-70.831c-20.95-43.594,6.778-56.231-13.618-69.849
	C571.062,232.519,549.847,215.68,546.675,247.289z M545.423,300.335c14.36,1.434-35.877,23.966-39.653,49.285
	C506.182,325.834,522.781,305.448,545.423,300.335z M504.747,270.584c0.942,2.144,0.137,5.055,0.137,7.007
	c12.519,1.844,21.448,6.51,31.172,15.596c-21.259,13.416-6.031-14.64-45.372-8.51c6.346-6.023,10.738-4.542,5.294-13.597
	c-4.208-7.792-9.363-15.179-14.192-22.574c-0.328-0.69-0.019-1.682,0.003-2.538C491.623,249.594,500.079,261.172,504.747,270.584z
	 M504.7,171.308c1.272-10.715-2.111-20.041-8.39-28.523c-3.279-4.493-7.915-0.269-12.345-1.308
	c0.149-8.702,11.323-11.967,15.67-4.039c6.486,11.22,7.965,23.467,6.579,36.081c-2.293,19.901-10.169,38.068-21.967,54.12
	c-0.206-0.121-0.412-0.243-0.617-0.364C493.881,209.793,502.637,191.759,504.7,171.308z M479.808,191.844
	c1.958,5.459,9.6,14.601,2.673,18.963c-1.825,0.923-4.118,1.971-4.855-1.49c-5.791-28.745-30.486-42.88-54.347-55.189
	C447.368,158.904,467.396,169.809,479.808,191.844z M423.727,254.329c-1.981,6.324,0.604,16.919-6.119,19.531
	c-2.755,1.07-5.175-1.56-5.587-3.244C410.415,264.04,423.354,254.198,423.727,254.329z M430.958,145.716
	c-5.196,1.144-8.518,0.195-10.524-3.852c-10.685-24.259-32.091-36.295-52.68-50.579c-9.757-9.819-22.623-13.137-35.069-17.632
	C377.289,80.981,406.511,109.38,430.958,145.716z M348.666,262.012c-0.396-0.119,0.394-11.49-3.328-16.783
	c-3.164,4.593-6.111,8.872-9.058,13.151c-0.305-0.189,0.971-14.881,0.489-15.12c-7.399,8.746-10.428,19.919-18.6,28.176
	c-1.608-6.752,0.076-13.003-4.767-17.523c-8.942,9.596-5.44,24.306-8.242,36.079c-4.629-8.073-4.934-16.885-8.895-25.139
	c-3.707,4.535-2.914,9.838-4.524,15.982c-5.092-7.526-7.288-15.153-8.39-23.819c-1.233,1.435-2.077,2.417-3.269,3.805
	c-6.595-6.367-8.147-14.853-11.167-22.888c0,7.79,0,15.579,0,24.488c-5.401-9.538-6.263-19.501-8.003-29.804
	c-4.077,0.88-9.19,8.576-11.697,1.386c-3.217-9.485-6.701-18.88-10.109-28.3c-3.091-7.083-6.83-6.689,2.161-10.794
	c-1.437,4.419,1.019,5.886,3.741,7.759c11.88,8.175,21.464,18.412,27.351,31.795c2.515,5.717,6.014,10.599,12.009,13.123
	c15.77,6.908,31.035-23.445,69.302-18.227c4.805,1.062,21.074,2.177,21.359,7.878c-3.734,10.011-7.227,21.98-16.176,28.402
	c0.88-6.996,1.696-13.489,2.513-19.982C361.015,245.436,352.549,256.341,348.666,262.012z M332.156,312.075
	c1.304,3.309,0.502,4.649-3.596,6.261c-0.301-5.777,1.18-11.971-4.313-17.734c-1.865,8.84-5.097,15.757-11.788,20.297
	c-0.565-0.197,0.227-11.059,1.444-17.69c-5.689,3.98-8.519,6.881-12.455,12.51c-4.217-8.685-5.057-17.292-3.277-26.313
	c-0.451-0.254-6.839,4.303-10.123,7.335c-1.049-4.058-3.982-11.382-4.468-11.248c1.497,5.96,2.993,11.921,4.594,18.297
	c2.133-4.195,6.743-10.973,7.262-10.849c-0.013,9.389,1.055,18.48,6.182,26.949c2.763-4.187,8.374-10.879,8.82-10.65
	c-0.115,4.745-1.865,9.659,0.063,14.205c7.032-2.365,10.141-11.055,15.239-16.003c1.561,1.904,1.561,1.904-1.293,20.245
	c7.036-9.466,19.819-16.023,21.411-26.953c0.892,6.417-1.144,11.561-2.027,17.962c3.017-4.18,6.034-8.361,9.378-12.993
	c-1.318,14.229-13.655,26.712-26.881,28.298c-10.938,1.099-26.224,1.759-31.525-10.081c-5.361-11.837-11.034-23.533-16.655-35.25
	c-2.148-4.478-0.484-11,4.061-14.024c0.306,1.56,0.581,2.963,0.919,4.691c7.713-3.197,6.375,5.986,11.238,8.215
	c-0.795-4.07-1.141-6.396,1.481-9.432c6.176,4.634,7.317,13.492,12.62,18.779c-2.151-21.735-3.29-21.09,18.721-21.439
	c0.854-0.002,2.652,2.265,2.428,2.997C326.061,290.036,327.839,301.122,332.156,312.075z M343.294,298.992
	c-2.156,4.24-4.313,8.479-6.67,13.113C331.204,305.969,333.412,301.519,343.294,298.992z M269.985,251.282
	c8.742,8.887,10.673,22.514,4.59,29.568c-4.562-11.123-31.976-32.767-17.378-42.489c2.007-1.409,2.102,1.403,2.374,3.071
	c1.471,10.95,1.363,18.643,12.707,27.631C271.553,263.449,270.83,257.835,269.985,251.282z M275.297,136.761
	c7.751,16.538,16.009,12.778,18.072-4.216c22.538,16.006,32.418,37.271,30.845,64.341c2.036-0.38,3.478-0.649,5.515-1.029
	c-3.577,15.873-17.251,25.978-31.027,32.77c-17.798,5.514-29.346-30.061-35.714-42.336c-0.422,0.1,0.401,17.173-0.009,17.306
	c-15.219-35.112-16.619-88.655,23.902-106.73C278.135,108.498,270.17,121.967,275.297,136.761z M371.27,217.138
	c-11.352,11.586-24.639-16.626-25.985-25.888c0.398-0.16,4.032,2.662,5.43,4.209c4.549-16.659,7.016-33.618,19.921-46.206
	c-1.159,5.404-0.121,16.189,7.043,9.447c5.639-10.597-0.052-22.836,0.606-30.412c0.171-1.969,3.089-6.882,3.536-7.071
	c11.897,23.416,12.944,54.679,5.414,79.986c-0.394-0.048-2.481-6.188-2.839-6.255C381.237,202.967,376.416,210.29,371.27,217.138z
	 M382.652,239.075c2.434-1.23,4.763-2.67,7.098-4.004c-1.083-3.66-2.015-6.811-2.947-9.962c0.276-0.065,0.553-0.13,0.83-0.195
	c4.193,5.007,8.386,10.015,13.527,16.154c-6.861,0.917-12.632,1.9-18.443,2.29c-1.171,0.079-2.493-2.087-3.746-3.218
	C380.204,239.797,381.532,239.641,382.652,239.075z M346.696,86.092c2.016,1.092,5.114,4.659,4.844,4.987
	c-62.008-32.075-109.069,15.605-107.314,79.626c-0.672,5.305,1.58,11.434-2.317,15.775c-10.267-17.787,0.972-54.784,8.661-73.191
	C264.952,79.37,316.237,69.567,346.696,86.092z M311.022,66.99c-3.412,7.917-40.707-23.656-43.397-29.108
	C282.586,47.917,296.735,57.407,311.022,66.99z M260.788,55.582c5.971-1.734,13.153,5.947,5.126,8.832
	c-22.155-2.798-43.915-1.823-64.811,7.066C217.651,56.65,240.296,58.556,260.788,55.582z M233.59,213.251
	c-5.042-1.334-6.359-3.495-5.55-8.476C229.834,207.516,231.73,210.412,233.59,213.251z M130.501,54.582
	c29.058-26.846,78.35-36.753,107.112-4.433c-3.411,2.35-6.711,2.842-9.545,0.101c-39.54-36.349-118.724,7.422-114.823,58.763
	c5.02-7.825,15.798-22.673,16.268-22.43c-8.932,17.922-13.369,36.98-14.955,56.894C104.879,111.858,100.641,77.831,130.501,54.582z
	 M15.417,176.858c0.429-2.168,4.288-7.394,4.796-7.427c0.487,5.574-0.43,19.497,0.058,25.071
	C19.534,194.459,14.598,181.001,15.417,176.858z M17.619,319.649c-5.545,3.337-1.862,7.767-1.781,12.631
	c-3.304,1.972-4.592-3.19-4.442-6.167c0.294-5.825,5.373-13.433,10.96-13.299C22.065,314.847,19.66,318.643,17.619,319.649z
	 M42.218,366.78c-19.849-0.401-21.769,8.374-27.86,4.238c-16.431-11.159,4.841-25.674,5.24-25.478
	c-3.876,6.571-11.592,17.077-2.519,22.775C26.443,369.854,21.805,361.037,42.218,366.78z M79.08,292.897
	c-0.658,25.772,28.813,24.136,22.824,37.557c-3.19,7.684-5.268,15.865-7.849,23.797c-0.686-0.145,8.833-27.942-8.255-36.258
	c-22.518-11.31,4.564-21.45-28.309-41.56C65.504,273.97,78.31,284.083,79.08,292.897z M25.44,202.484
	c-4.08,11.743-4.842,24.666-8.705,36.404c0.04-29.662,10.461-59.497,30.445-81.603c8.661-6.634,18.856-10.971,23.791-21.563
	c7.427-12.979,16.968-24.283,30.45-31.526c0.422,5.753,4.784,11.22-3.166,11.795c-16.237,3.755-22.313,20.889-30.993,33.168
	c-1.057,1.613-2.18,3.563-3.774,4.385C43.215,163.993,32.005,181.648,25.44,202.484z M97.43,227.649
	c-1.458,20.855-18.54,24.653-34.551,32.519c15.838-24.363,27.859-5.063,31.661-44.104C97.31,219.803,98.205,223.705,97.43,227.649z
	 M143.586,190.331c-21.71,15.7-57.09,25.944-74.125-2.369c24.618,14.973,49.478,10.481,71.394-6.406
	C146.155,177.518,147.658,188.504,143.586,190.331z M148.086,163.042c-0.226-14.513,2.828-27.863,8.551-40.657
	c0.415,0.03,0.831,0.059,1.247,0.089c-0.558,8.329-1.49,16.63-2.071,24.955C155.32,154.999,154.438,156.995,148.086,163.042z
	 M154.39,197.297c2.101-2.101,6.768-11.256,9.216-5.388c4.876,16.698,12.098,33.246,15.685,50.049
	c-10.962-9.74-12.372-31.472-20.435-43.169c-1.405,2.929-2.58,7.386-3.547,9.402C151.648,203.993,151.399,201.434,154.39,197.297z
	 M159.001,205.149c3.339,8.538,6.333,16.194,9.327,23.85C159.054,222.816,155.411,213.414,159.001,205.149z M163.158,237.175
	c-0.424-0.998-0.565-2.116-0.838-3.178c0.421-0.256,0.841-0.512,1.261-0.768c11.251,14.98,16.439,33.152,24.021,50.067
	c3.323,8.192,15.76-3.175,21.078-5.329c-11.269,1.759-16.424,9.589-21.324-4.607c-3.863-9.58-5.61-15.018-10.064-25.079
	c17.904,11.865,4.541,37.125,32.656,21.947c-0.112-0.363-14.557,5.061-20.904-13.728c8.231,5.888,13.142,6.509,22.28,1.997
	c-0.098-0.416-14.041,2.965-16.369-4.833c-4.801-12.698-14.421-38.184-14.905-38.044c3.577,12.024,7.154,24.049,10.765,36.188
	c-10.531-7.804-18.926-48.117-27.832-68.233c-4.277,4.213-6.98,9.193-10.786,12.943c-2.611-8.856,7.567-26.337,17.817-30.859
	c0.999,4.021,3.646,11.731,3.992,11.655c-0.786-4.529-1.572-9.059-2.492-14.359c-11.027,3.721-14.872,13.633-21.089,22.363
	c-1.335-5.657-2.003-10.704,1.346-14.928c9.047-11.411,18.403-22.579,27.726-33.769c0.581-0.697,1.931-0.753,2.923-1.108
	c3.824,16.318,2.22,33.854,5.567,50.364c3.018,18.071,7.629,35.924,11.805,53.787c4.407,8.842,1.952,9.331,12.819,7.329
	c4.382-0.807,8.93-0.716,12.918-0.999c1.53-7.902-1.694-24.227,10.327-22.262c3.699,5.434-2.619,19.023-2.747,25.998
	c5.134,17.194,22.678,29.952,29.317,46.687c-8.455-7.347-19.493-8.679-28.595-14.341c-0.293,0.515-0.586,1.029-0.878,1.544
	c34.893,22.437,11.866,11.225,17.745,27.217c5.457,10.496,8.796,23.28,3.551,34.534c-3.937,8.276,8.952,16.288-2.086,23.276
	c-6.184-7.511-3.429-9.378-14.65-5.91c-8.906,1.725-16.805-0.813-24.106-5.769c-6.96-5.827-7.983-2.117-14.995,0.891
	c-3.386-7.015,2.579-12.737,2.205-19.5c-2.363-13.794,0.867-25.897,10.264-36.246c3.604-3.969,3.394-8.472,2.551-13.178
	c-0.773-6.9-16.529,5.095-20.269,6.205c-2.616,1.505-4.437,2.004-5.757-1.076C179.287,275.116,171.215,256.149,163.158,237.175z
	 M274.256,337.308c-4.355-11.576-10.476-22.574-13.322-34.576c4.827,2.746,8.967,5.116,10.758,10.242
	c1.771,8.41,10.671,19.728,6.573,27.575C276.892,339.484,274.852,338.705,274.256,337.308z M275.3,369.041
	c-2.36,1.518-4.72,3.036-7.08,4.554c-0.276-0.4-0.552-0.8-0.828-1.2c2.294-1.696,4.587-3.393,6.881-5.089
	C274.614,367.884,274.957,368.462,275.3,369.041z M240.214,395.004c-6.507,7.399-27.346,9.957-33.089,2.648
	C218.257,396.761,228.85,395.913,240.214,395.004z M199.065,385.736c-0.705,8.973-1.626,17.93-2.508,27.276
	c-4.361-25.492,0.041-35.771-20.854-55.938c0.312-0.369,0.623-0.737,0.935-1.106C186.378,363.431,197.533,372.932,199.065,385.736z
	 M177.899,296.272c6.151,3.867,6.231,5.026,2.791,9.821c-5.708,7.909-17.639,23.531-18.14,23.257
	C167.644,318.37,172.739,307.39,177.899,296.272z M170.762,467.604c7.969-10.701,16.693-20.734,27.161-29.181
	c4.204-5.619,3.414-13.064,5.091-20.356c4.008,5.052,1.769,14.991,1.816,21.273c-4.387,10.873-17.475,16.684-24.897,25.547
	c-8.415,8.277-15.449,18.017-23.858,26.238c-0.353-0.259-0.705-0.519-1.057-0.778C160.247,482.752,165.258,474.994,170.762,467.604z
	 M137.439,377.868c-11.649,13.29-27.791,25.372-26.878,44.834c-1.334,20.696,1.944,40.92,6.22,61.054
	c0.336,1.582,0.299,4.129-0.663,4.968c-21.497,19.323-25.385,48.91-35.904,74.211c-0.187-23.706,11.023-46.501,23.437-66.07
	c14.797-41.473-26.196-95.37,34.612-122.291c0.245,0.382,0.489,0.764,0.734,1.147C138.48,376.439,138.029,377.217,137.439,377.868z
	 M138.596,356.203c-17.695,17.472-4.526,16.863-23.21,27.676c-2.086-12.823,22.36-36.949,35.087-38.935
	C146.268,348.895,142.229,352.357,138.596,356.203z M178.178,648.857c-11.498-15.649-14.269-35.314-22.129-53.609
	c3.646-0.655,6.881-1.237,10.789-1.939c0-3.478,0-6.823,0-10.081c6.623-1.117,7.262-0.476,7.709,5.383
	c1.466,19.869,3.307,39.711,4.754,59.581C178.926,648.414,178.552,648.636,178.178,648.857z M192.874,573.887
	c-0.366-0.124-0.831-0.171-0.857-0.305c-1.232-6.311-7.677-8.096-11.091-12.622c-8.037-10.722-20.403-16.796-31.842-23.199
	c19.433,3.073,36.641,10.164,48.818,27.73C190.879,565.362,196.053,571.931,192.874,573.887z M159.043,513.675
	c4.854,8.059,9.707,16.118,14.807,24.586c-3.758-1.148-8.488-0.205-10.891-3.421C159.689,528.185,158.159,521.148,159.043,513.675z
	 M269.632,532.872c-8.168,8.863-12.15-0.008-17.249-5.461c-0.155-0.182-0.13-0.519-0.465-2.03
	C258.115,528.002,263.622,530.33,269.632,532.872z M249.469,516.908c-2.316-10.446-0.973-21.944,0.385-32.125
	c0.217,7.358,7.924,31.196,3.726,35.282C252.149,519.023,249.693,518.165,249.469,516.908z M245.142,437.94
	c-7.233-3.755-22.061-5.322-24.642,4.697c-3.088,19.039-12.068,35.756-20.255,52.858c-4.119,8.604-7.224,17.766-10.015,26.911
	c-6.372,21.324,52.525,26.644,66.216,23.373c-4.591,3.898-22.331,10.136-21.687,15.79c-8.096,7.696-16.978,14.967-26.416,21.314
	c9.967-10.969,4.378-12.239,0.176-23.411c-6.533-2.074-11.175-7.149-16.965-10.433c-6.006-3.182-10.582-7.572-13.634-13.546
	c-6.104-11.947-12.092-23.954-18.165-35.918c-5.096-10.889,30.994-36.787,40.685-41.096c17.354-10.723,12.043-34.565,6.658-50.987
	c21.004,3.086,33.522,19.208,51.805,30.028C253.183,440.252,249.267,440.043,245.142,437.94z M368.022,419.074
	c7.439,10.26,18.209,43.991-3.125,43.118c-5.336-0.926-9.037,1.016-12.819,3.767c-12.429,9.043-26.507,14.579-41.027,19.032
	c-12.875,1.414-24.051-9.323-36.65-13.975c38.439,1.209,22.622,15.106,65.061-3.733c8.225-3.195,13.025-14.987,23.161-11.014
	c11.038,4.073,7.839-11.999,8.142-18.39c0.283-6.287-7.897-5.801-10.209-11.051c-10.095-25.886-40.131-34.504-61.749-46.972
	C325.663,384.6,351.259,393.99,368.022,419.074z M291.149,439.066c7.953,4.051,16.343,7.243,25.661,11.319
	c-14.343-1.433-27.814-1.965-39.599-9.049c-16.996-11.538-33.983-23.107-51.785-33.431c0.221-0.612,0.441-1.225,0.662-1.837
	C248.476,415.257,269.229,428.625,291.149,439.066z M283.692,337.781c-6.777-28.504-20.259-53.845-37.499-77.319
	c-8.63-10.778-7.837-21.013-3.434-24.633c0.476,8.082-2.672,16.437,4.709,22.333c9.536,8.921,14.92,20.632,20.144,32.181
	c6.684,14.778,12.936,29.823,18.128,45.174c6.911,19.523,32.38,12.639,46.468,5.523
	C320.442,354.864,288.262,360.271,283.692,337.781z M368.854,339.342c-21.934,15.182-47.558,21.818-73.668,25.456
	c-0.065-0.611-0.13-1.222-0.195-1.833c24.207-2.469,47.256-10.734,66.748-25.456C364.531,333.779,372.794,333.223,368.854,339.342z
	 M381.552,330.295c-6.032,4.88-7.237,5.004-12.634-0.656c-3.998-4.192-7.641-8.721-11.572-12.98
	c-4.434-4.785-1.067-11.279-2.903-17.113c-0.482,0.02-3.835,5.505-5.25,8.729c-2.96-8.381,2.369-21.002,2.923-20.912
	c8.215,13.718,19.435,25.175,29.908,37.165C384.199,326.951,383.97,328.339,381.552,330.295z M391.321,320.05
	c-2.051,2.044-3.064,4.364-5.863,5.61c-12.116-13.22-25.3-25.682-32.94-43.355c-2.302,2.276-20.406,25.381-21.313,17.458
	c-6.144-20.447,15.868-28.028,31.662-20.603c8.371,11.519,16.801,23.424,27.961,32.743
	C394.785,315.521,394.848,315.927,391.321,320.05z M395.18,313.326c-11.169-9.209-20.588-19.914-28.394-32.291
	c12.127-0.001,27.266,11.013,31.181,23.88C398.879,308.11,399.388,311.411,395.18,313.326z M407.308,310.465
	c-8.516-19.709-24.178-30.227-43.536-36.917c-1.844-0.692-5.194,0.105-4.438-3.613c0.554-2.727,4.175-4.291,7.392-2.901
	c13.652,6.221,27.791,11.558,40.886,18.893c0.325-0.513,0.65-1.025,0.974-1.538c-7.232-4.894-14.465-9.787-22.458-15.196
	c24.455,1.386,37.859,19.743,45.708,40.706c9.311,15.551,26.824-3.276,22.402-16.128c-3.445-9.35,4.214-12.753,10.263-5.522
	C505.18,329.293,427.25,340.401,407.308,310.465z M460.298,379.591c-10.226-4.227-16.016-11.935-16.538-22.892
	c-0.299-6.281,0.809-12.655,1.623-18.943c0.748-4.137,5.435-4.942,8.931-5.798c-0.195,8.21-1.252,16.401-1.285,24.602
	C451.721,368.58,469.992,368.851,460.298,379.591z M471.247,371.483c0,8.411,0,17.446,0,26.898
	C462.321,394.25,465.535,375.642,471.247,371.483z M432.22,412.453c-5.563-3.656-9.927-8.378-12.03-14.889
	c-0.773-1.705-0.523-2.589-2.613-3.589c-6.552,13.689-1.716,26.066,3.091,38.532c-16.828-12.792-11.578-36.902-3.427-54.254
	c3.817,42.616,54.547,27.478,49.122,74.175C463.086,433.018,448.984,420.867,432.22,412.453z M482.733,453.057
	c-15.294,15.866-2.775,23.378-31.16,20.752c0.021-0.355,0.042-0.71,0.063-1.066c25.468,2.888,17.494-10.338,28.911-25.617
	C482.801,448.135,483.589,451.157,482.733,453.057z M570.985,461.71c1.908-13.836-21.283-19.344-29.735-27.757
	c-5.652-4.14-11.809-3.874-18.174-3.765c-17.204,0.698-33.102-8.311-40.565-24.039c-3.301,7.653-0.011,14.499-0.994,21.179
	c-4.305-11.229-4.723-22.757-2.738-34.954c22.51,50.789,48.161,20.453,64.912,36.485C551.285,439.865,576.549,445.47,570.985,461.71
	z M564.641,438.894c-3.667-3.154-10.387-24.003-2.447-23.065c2.057,0.538,2.721,1.482,2.572,3.914
	C564.389,425.894,564.641,432.084,564.641,438.894z M622.804,421.713c-3.562,3.986-7.839,6.857-12.968,7.628
	c23.112-34.164-7.631-19.307-18.302-55.005c-7.376-26.646-35.412-11.893-54.208-21.615c1.125,9.077,2.304,18.588,3.573,28.825
	c-7.51-14.249-9.974-28.932-9.624-44.571c18.325,35.654,42.387,1.513,65.206,32.463
	C600.748,391.623,638.492,405.394,622.804,421.713z M222.426,333.755c2.366-11.438-9.679-32.945,9.056-35.321
	c-17.226,15.985,7.917,24.659-9.755,44.382c-0.617-0.231-1.234-0.463-1.851-0.694C220.753,339.338,221.916,336.605,222.426,333.755z
	"/>
<g>
</g>
<g>
</g>
<g>
</g>
<g>
</g>
<g>
</g>
</svg>
